<?xml version="1.0" encoding="utf-8"?>
<svg version="1.0" id="Layer_1" xmlns="http://www.w3.org/2000/svg" xmlns:xlink="http://www.w3.org/1999/xlink" x="0px" y="0px"
	 width="200px" height="200px" viewBox="0 0 200 200" enable-background="new 0 0 200 200" xml:space="preserve">
<g id="E">
	
		<radialGradient id="SVGID_1_" cx="56.0732" cy="8162.5645" r="14.341" gradientTransform="matrix(1 0 0 0.24 0 -1733.0399)" gradientUnits="userSpaceOnUse">
		<stop  offset="0" style="stop-color:#323232;stop-opacity:0.92"/>
		<stop  offset="0.24" style="stop-color:#272727;stop-opacity:0.64"/>
		<stop  offset="0.64" style="stop-color:#0B0B0B;stop-opacity:0.17"/>
		<stop  offset="0.79" style="stop-color:#000000;stop-opacity:0"/>
	</radialGradient>
	<ellipse fill="url(#SVGID_1_)" cx="56.1" cy="190.5" rx="15" ry="3.1"/>
	
		<linearGradient id="SVGID_2_" gradientUnits="userSpaceOnUse" x1="55.3989" y1="1512.2338" x2="55.3989" y2="1444.1479" gradientTransform="matrix(1 0 0 1 0 -1344)">
		<stop  offset="0" style="stop-color:#3D6A06"/>
		<stop  offset="0.16" style="stop-color:#588710"/>
		<stop  offset="0.33" style="stop-color:#6D9D18"/>
		<stop  offset="0.51" style="stop-color:#7BAE1E"/>
		<stop  offset="0.72" style="stop-color:#84B721"/>
		<stop  offset="1" style="stop-color:#87BA22"/>
	</linearGradient>
	<path fill="url(#SVGID_2_)" d="M50.8,183.6h10c-0.6-13-4.5-54.5-10.8-80.3C51.2,121,52.4,179.9,50.8,183.6z"/>
	
		<linearGradient id="SVGID_3_" gradientUnits="userSpaceOnUse" x1="52.4493" y1="1527.6986" x2="52.4493" y2="1447.4297" gradientTransform="matrix(1 0 0 1 0 -1344)">
		<stop  offset="0" style="stop-color:#BBE882"/>
		<stop  offset="0.14" style="stop-color:#BEE988;stop-opacity:0.92"/>
		<stop  offset="0.34" style="stop-color:#C8EC9A;stop-opacity:0.8"/>
		<stop  offset="0.58" style="stop-color:#D8F2B7;stop-opacity:0.67"/>
		<stop  offset="0.83" style="stop-color:#EEF9E0;stop-opacity:0.53"/>
		<stop  offset="1" style="stop-color:#FFFFFF;stop-opacity:0.43"/>
	</linearGradient>
	<path opacity="0.28" fill="url(#SVGID_3_)" enable-background="new    " d="M50.8,183.7h4.1c0.5-29.4-4.9-80.3-4.9-80.3
		C51.2,121.1,52.4,180,50.8,183.7z"/>
	
		<linearGradient id="SVGID_4_" gradientUnits="userSpaceOnUse" x1="54.018" y1="1523.6976" x2="54.018" y2="1452.1051" gradientTransform="matrix(1 0 0 1 0 -1344)">
		<stop  offset="0" style="stop-color:#48790B"/>
		<stop  offset="0.82" style="stop-color:#FFFFFF;stop-opacity:0.43"/>
	</linearGradient>
	<path opacity="0.33" fill="url(#SVGID_4_)" enable-background="new    " d="M51.2,181.4l4.2,1.2c0,0-0.3-10.5,2.6-15.2
		c0.8-5.4-5.9-54.8-7.7-63.2c0-0.3-0.1-0.6-0.2-0.9C51.1,119.5,52.3,169.8,51.2,181.4z"/>
	
		<linearGradient id="SVGID_5_" gradientUnits="userSpaceOnUse" x1="48.6463" y1="1533.9475" x2="48.6463" y2="1509.469" gradientTransform="matrix(1 0 0 1 0 -1344)">
		<stop  offset="0" style="stop-color:#5E7814"/>
		<stop  offset="0.51" style="stop-color:#8AA21F"/>
		<stop  offset="1" style="stop-color:#B1C628"/>
	</linearGradient>
	<path fill="url(#SVGID_5_)" d="M50.5,191.2l6.3,0.3c0.2-12.3-4.3-33.5-16.4-41.7C46.6,157.4,51.1,166.7,50.5,191.2z"/>
	
		<linearGradient id="SVGID_6_" gradientUnits="userSpaceOnUse" x1="47.8114" y1="1529.8567" x2="48.1936" y2="1510.1211" gradientTransform="matrix(1 0 0 1 0 -1344)">
		<stop  offset="0" style="stop-color:#82AF10"/>
		<stop  offset="0.82" style="stop-color:#FFFFFF;stop-opacity:0"/>
	</linearGradient>
	<path opacity="0.17" fill="url(#SVGID_6_)" enable-background="new    " d="M41.3,150.8c5.7,7.5,9.8,17,9.3,40.5l4.3,0.2
		C55,186.8,55.2,161.9,41.3,150.8L41.3,150.8z"/>
	
		<linearGradient id="SVGID_7_" gradientUnits="userSpaceOnUse" x1="63.9454" y1="1534.7343" x2="63.9454" y2="1512.6833" gradientTransform="matrix(1 0 0 1 0 -1344)">
		<stop  offset="0" style="stop-color:#5E7814"/>
		<stop  offset="0.14" style="stop-color:#758E1A"/>
		<stop  offset="0.34" style="stop-color:#8FA620"/>
		<stop  offset="0.55" style="stop-color:#A2B824"/>
		<stop  offset="0.77" style="stop-color:#ADC327"/>
		<stop  offset="1" style="stop-color:#B1C628"/>
	</linearGradient>
	<path fill="url(#SVGID_7_)" d="M62.5,191.6c0.2,0.9-6.3,1.5-6.5,1.3c-0.2-0.2-4.7-30.3,16.5-27.3C61,166.1,60.1,181.9,62.5,191.6z"
		/>
	
		<linearGradient id="SVGID_8_" gradientUnits="userSpaceOnUse" x1="58.6304" y1="1536.3977" x2="58.6304" y2="1511.4414" gradientTransform="matrix(1 0 0 1 0 -1344)">
		<stop  offset="0" style="stop-color:#FFFFFF"/>
		<stop  offset="1" style="stop-color:#FFFFFF;stop-opacity:0"/>
	</linearGradient>
	<path opacity="8.000000e-02" fill="url(#SVGID_8_)" enable-background="new    " d="M56.1,192.9c1.4,0,2.8-0.1,4.1-0.4
		c-0.3-2.5-1.6-16.4,1.6-24.6C53.2,174.7,55.9,192.7,56.1,192.9z"/>
	
		<radialGradient id="SVGID_9_" cx="16215.5576" cy="10659.5596" r="15.2401" gradientTransform="matrix(0.18 0 0 0.19 -2752.0798 -1784.075)" gradientUnits="userSpaceOnUse">
		<stop  offset="0" style="stop-color:#323232"/>
		<stop  offset="0.29" style="stop-color:#252525;stop-opacity:0.67"/>
		<stop  offset="0.83" style="stop-color:#040404;stop-opacity:7.000000e-02"/>
		<stop  offset="0.89" style="stop-color:#000000;stop-opacity:0"/>
	</radialGradient>
	<ellipse opacity="0.47" fill="url(#SVGID_9_)" enable-background="new    " cx="58" cy="177.3" rx="2.9" ry="2.7"/>
	
		<radialGradient id="SVGID_10_" cx="53.758" cy="23.6851" r="2.8012" gradientTransform="matrix(1 0 0 -1 0 201)" gradientUnits="userSpaceOnUse">
		<stop  offset="0" style="stop-color:#323232"/>
		<stop  offset="0.29" style="stop-color:#252525;stop-opacity:0.67"/>
		<stop  offset="0.83" style="stop-color:#040404;stop-opacity:7.000000e-02"/>
		<stop  offset="0.89" style="stop-color:#000000;stop-opacity:0"/>
	</radialGradient>
	<ellipse opacity="0.47" fill="url(#SVGID_10_)" enable-background="new    " cx="53.8" cy="177.3" rx="2.9" ry="2.7"/>
	<circle fill="#FFFFFF" cx="53.8" cy="177.3" r="1.7"/>
	<circle fill="#FFFFFF" cx="58" cy="177.3" r="1.7"/>
	<path fill="#A0CB29" d="M41.9,187.3l2.4,4.1h1.3 M48.5,193.1h2.9l-4.2-11.4 M65.1,192.4h1.9l1.4-8.8 M69.9,190.1h1.6l0.8-3.2"/>
	
		<linearGradient id="SVGID_11_" gradientUnits="userSpaceOnUse" x1="133.5926" y1="60.2568" x2="133.5926" y2="203.217" gradientTransform="matrix(1 0 0 -1 0 201)">
		<stop  offset="0" style="stop-color:#3D6A06"/>
		<stop  offset="0.16" style="stop-color:#588710"/>
		<stop  offset="0.33" style="stop-color:#6D9D18"/>
		<stop  offset="0.51" style="stop-color:#7BAE1E"/>
		<stop  offset="0.72" style="stop-color:#84B721"/>
		<stop  offset="1" style="stop-color:#87BA22"/>
	</linearGradient>
	<path fill="url(#SVGID_11_)" d="M101.4,173c-0.6-18.7-0.3-37.5,1-56.2c0.9-14.6,2.8-29.2,5.5-43.6c0.2-1.2,0.5-2.2,0.5-2.2
		c1.4-7.1,3.2-14,5.4-20.9c1.4-4.3,2.1-6.5,3.1-9c2.3-5.5,5.1-10.8,8.5-15.7c2.2-3.5,4.6-6.7,7.3-9.8c4.9-5.4,8.8-9.6,14.9-10.7
		c2.7-0.5,5.5-0.3,8.1,0.5c6.9,2.1,10.7,8.1,10.3,8.7c-0.4,0.5-8.1-9-15.7-7.3c-4.2,1-7.1,5.1-10,9.2c-2,3.2-3.7,6.5-5.2,9.9
		c-2.2,4.8-3.5,7.8-3.8,8.6c-0.7,1.9-1.3,3.5-2.2,6.4c-0.9,2.5-1.5,4.5-2.2,6.9c-2,6.3-3,9.5-3.6,11.7c-0.6,2.2-1.4,5.2-2.8,12.4
		c-1.8,9.6-3.2,18.4-3.8,22.5c-1.6,12.1-3.2,38.6-1.3,73.4"/>
	
		<linearGradient id="SVGID_12_" gradientUnits="userSpaceOnUse" x1="126.3365" y1="51.378" x2="126.3365" y2="203.7789" gradientTransform="matrix(1 0 0 -1 0 201)">
		<stop  offset="0" style="stop-color:#48790B"/>
		<stop  offset="0.82" style="stop-color:#FFFFFF;stop-opacity:0.43"/>
	</linearGradient>
	<path opacity="0.33" fill="url(#SVGID_12_)" enable-background="new    " d="M100.6,180c-0.9-18.5-0.5-37.1,1.1-55.5
		c1.2-18.6,3.5-37,7-55.3c0.1-0.7,0.3-1.7,0.6-3c1.7-9.2,4.4-18.2,8.1-26.7c1.9-4.4,4.2-8.6,6.7-12.7c2.5-3.9,5.1-7.4,7.8-10.8
		c2-2.7,3.1-4,3.6-4.5c6.6-6.7,16.7-7.7,16.9-6.9c0.2,0.7-6.7,1.8-13.6,7.9c-4.1,3.9-7.4,8.6-9.5,13.9c-4.9,11-8.4,22.6-10.5,34.4
		c-3.2,15.2-4.7,22.8-6,32.5c-1.6,12.4-2,21.3-2.8,49.2c-0.4,15.5-0.5,24.1-0.8,41.5"/>
	
		<linearGradient id="SVGID_13_" gradientUnits="userSpaceOnUse" x1="126.7528" y1="60.2793" x2="126.7528" y2="203.3293" gradientTransform="matrix(1 0 0 -1 0 201)">
		<stop  offset="0" style="stop-color:#BBE882"/>
		<stop  offset="0.14" style="stop-color:#BEE988;stop-opacity:0.92"/>
		<stop  offset="0.34" style="stop-color:#C8EC9A;stop-opacity:0.8"/>
		<stop  offset="0.58" style="stop-color:#D8F2B7;stop-opacity:0.67"/>
		<stop  offset="0.83" style="stop-color:#EEF9E0;stop-opacity:0.53"/>
		<stop  offset="1" style="stop-color:#FFFFFF;stop-opacity:0.43"/>
	</linearGradient>
	<path opacity="0.28" fill="url(#SVGID_13_)" enable-background="new    " d="M101.4,173c-0.6-18.7-0.3-37.5,1-56.2
		c0.9-14.6,2.8-29.2,5.5-43.6c0.2-1.2,0.5-2.2,0.5-2.2c1.4-7.1,3.2-14,5.4-20.9c1.4-4.3,2.1-6.5,3.1-9c2.3-5.5,5.1-10.8,8.5-15.7
		c2.2-3.5,4.6-6.7,7.3-9.8c7.8-8.6,12.8-10.2,14.9-10.7c1.6-0.4,3.2-0.5,4.8-0.2c-2.3,0.4-4.5,1-6.6,1.9c-2.4,1.2-4.5,2.9-6.1,5
		c-4.5,5.3-8.4,11.1-11.7,17.2c-2.9,5.5-5.3,11.3-7.3,17.2c-0.6,1.9-1.4,4.5-2.9,9.8c-0.8,2.7-1.7,5.5-2.6,9
		c-0.9,3.5-1.4,4.1-5.3,24c-1.7,8.5-3.8,40-2.5,83.2"/>
	
		<linearGradient id="SVGID_14_" gradientUnits="userSpaceOnUse" x1="89.9411" y1="1524.5067" x2="89.9411" y2="1463.3666" gradientTransform="matrix(1 0 0 1 0 -1344)">
		<stop  offset="0" style="stop-color:#5E7814"/>
		<stop  offset="0.51" style="stop-color:#8AA21F"/>
		<stop  offset="1" style="stop-color:#B1C628"/>
	</linearGradient>
	<path fill="url(#SVGID_14_)" d="M94.7,183.6l15.7,0.7c0.4-30.6-10.7-83.6-40.9-104.3C84.8,99.1,96,122.5,94.7,183.6L94.7,183.6z"/>
	
		<linearGradient id="SVGID_15_" gradientUnits="userSpaceOnUse" x1="87.9344" y1="1514.2795" x2="88.8784" y2="1465.0302" gradientTransform="matrix(1 0 0 1 0 -1344)">
		<stop  offset="0" style="stop-color:#82AF10"/>
		<stop  offset="0.82" style="stop-color:#FFFFFF;stop-opacity:0"/>
	</linearGradient>
	<path opacity="0.17" fill="url(#SVGID_15_)" enable-background="new    " d="M71.7,82.8c14.3,18.7,24.4,42.6,23.1,101l10.8,0.5
		C106,172.5,106.2,110.3,71.7,82.8z"/>
	
		<radialGradient id="SVGID_16_" cx="108.5819" cy="12019.6367" r="35.8299" gradientTransform="matrix(1 0 0 -1 0 201)" gradientUnits="userSpaceOnUse">
		<stop  offset="0" style="stop-color:#323232;stop-opacity:0.92"/>
		<stop  offset="0.24" style="stop-color:#272727;stop-opacity:0.64"/>
		<stop  offset="0.64" style="stop-color:#0B0B0B;stop-opacity:0.17"/>
		<stop  offset="0.79" style="stop-color:#000000;stop-opacity:0"/>
	</radialGradient>
	<ellipse fill="url(#SVGID_16_)" cx="108.6" cy="182" rx="37.4" ry="7.7"/>
	
		<linearGradient id="SVGID_17_" gradientUnits="userSpaceOnUse" x1="128.2066" y1="1526.4624" x2="128.2066" y2="1471.4137" gradientTransform="matrix(1 0 0 1 0 -1344)">
		<stop  offset="0" style="stop-color:#5E7814"/>
		<stop  offset="0.14" style="stop-color:#758E1A"/>
		<stop  offset="0.34" style="stop-color:#8FA620"/>
		<stop  offset="0.55" style="stop-color:#A2B824"/>
		<stop  offset="0.77" style="stop-color:#ADC327"/>
		<stop  offset="1" style="stop-color:#B1C628"/>
	</linearGradient>
	<path fill="url(#SVGID_17_)" d="M124.7,184.6c0.5,2.2-15.7,3.8-16.3,3.3c-0.6-0.5-11.8-75.7,41.1-68.1
		C120.8,121,118.6,160.4,124.7,184.6z"/>
	
		<linearGradient id="SVGID_18_" gradientUnits="userSpaceOnUse" x1="114.7219" y1="1530.6433" x2="114.7219" y2="1468.2443" gradientTransform="matrix(1 0 0 1 0 -1344)">
		<stop  offset="0" style="stop-color:#FFFFFF"/>
		<stop  offset="1" style="stop-color:#FFFFFF;stop-opacity:0"/>
	</linearGradient>
	<path opacity="8.000000e-02" fill="url(#SVGID_18_)" enable-background="new    " d="M108.3,187.9c3.5,0.1,6.9-0.2,10.3-0.9
		c-0.7-6.3-3.9-41,3.8-61.4C101.1,142.5,107.9,187.6,108.3,187.9z"/>
	<path fill="#A0CB29" d="M73.1,173.9L79,184h3.3 M89.6,188.5h7.1L86.1,160 M130.9,186.6h4.7l3.4-22 M142.9,180.8h4l1.9-8.1"/>
	
		<radialGradient id="SVGID_19_" cx="27365.8887" cy="16073.8379" r="38.0777" gradientTransform="matrix(1 0 0 -1 0 201)" gradientUnits="userSpaceOnUse">
		<stop  offset="0" style="stop-color:#323232"/>
		<stop  offset="0.29" style="stop-color:#252525;stop-opacity:0.67"/>
		<stop  offset="0.83" style="stop-color:#040404;stop-opacity:7.000000e-02"/>
		<stop  offset="0.89" style="stop-color:#000000;stop-opacity:0"/>
	</radialGradient>
	<ellipse opacity="0.47" fill="url(#SVGID_19_)" enable-background="new    " cx="113.5" cy="148.9" rx="7.3" ry="6.7"/>
	
		<radialGradient id="SVGID_20_" cx="27305.3086" cy="16073.8379" r="38.0328" gradientTransform="matrix(1 0 0 -1 0 201)" gradientUnits="userSpaceOnUse">
		<stop  offset="0" style="stop-color:#323232"/>
		<stop  offset="0.29" style="stop-color:#252525;stop-opacity:0.67"/>
		<stop  offset="0.83" style="stop-color:#040404;stop-opacity:7.000000e-02"/>
		<stop  offset="0.89" style="stop-color:#000000;stop-opacity:0"/>
	</radialGradient>
	<ellipse opacity="0.47" fill="url(#SVGID_20_)" enable-background="new    " cx="102.8" cy="148.9" rx="7.3" ry="6.7"/>
	<circle fill="#FFFFFF" cx="102.8" cy="148.9" r="4.2"/>
	<circle fill="#FFFFFF" cx="113.3" cy="148.9" r="4.2"/>
</g>
</svg>
